<?xml version="1.0" encoding="utf-8"?>
<!-- Generator: Adobe Illustrator 25.1.0, SVG Export Plug-In . SVG Version: 6.00 Build 0)  -->
<svg version="1.1" id="Capa_1" xmlns="http://www.w3.org/2000/svg" xmlns:xlink="http://www.w3.org/1999/xlink" x="0px" y="0px"
	 viewBox="0 0 332 138.1" style="enable-background:new 0 0 332 138.1;" xml:space="preserve">
<style type="text/css">
	.st0{display:none;}
	.st1{display:inline;fill:#FFFFFF;stroke:#FFFFFF;stroke-width:0.75;stroke-miterlimit:10;}
	.st2{display:inline;stroke:#FFFFFF;stroke-width:0.75;stroke-miterlimit:10;}
	.st3{display:inline;}
	.st4{fill:#841811;}
	.st5{fill:#010202;}
	.st6{display:none;fill:none;}
	.st7{display:none;fill:#FFFFFF;enable-background:new    ;}
	.st8{font-family:'Cambria';}
	.st9{font-size:200px;}
	.st10{fill:#FFFFFF;stroke:#FFFFFF;stroke-miterlimit:10;}
	.st11{font-size:190px;}
	.st12{fill:#FFFFFF;}
	.st13{fill:#FF3333;}
	.st14{font-family:'Poppins-Regular';}
	.st15{font-size:48px;}
	.st16{letter-spacing:-1.9;}
	.st17{display:none;fill:none;stroke:#FFFFFF;stroke-width:0.75;stroke-miterlimit:10;enable-background:new    ;}
	.st18{font-family:'Cambria-Bold';}
	.st19{font-size:55px;}
	.st20{display:none;fill:#010202;stroke:#010202;stroke-width:0.25;stroke-miterlimit:10;}
	.st21{display:none;fill:none;stroke:#010202;stroke-miterlimit:10;}
	.st22{display:none;stroke:#010202;stroke-miterlimit:10;}
	.st23{display:none;fill:none;stroke:#010202;stroke-width:2;stroke-miterlimit:10;}
</style>
<g id="Capa_3" class="st0">
	<rect x="-5.8" y="-12.8" class="st1" width="353.4" height="178.7"/>
	<rect x="-14.7" y="-18.4" class="st2" width="380.7" height="204.5"/>
</g>
<g id="Capa_2_1_">
</g>
<g id="Capa_1_2_">
	<g id="Capa_2_2_">
		<g class="st0">
			<g class="st3">
				<path class="st4" d="M63,117c0,0.5,0,1,0,1.4c0-0.2,0.1-0.4,0.1-0.7c-0.1,0.3-0.1,0.6-0.1,1c0-0.2,0.1-0.4,0.1-0.7
					c0,0.2-0.2,0.5-0.2,0.7c-0.1,0.4-0.1,0.8-0.2,1.3c0-0.2,0.1-0.4,0.1-0.7c0,0.3-0.1,0.7-0.1,1.1c0-0.2,0.1-0.4,0.1-0.7
					c0,0.2-0.1,0.3-0.1,0.4c0.1-0.2,0.2-0.4,0.2-0.6v0.1c-0.3,0.5-0.4,1.3-0.2,1.9s0.6,1.2,1.2,1.5s1.3,0.5,1.9,0.2
					c0.6-0.2,1.1-0.6,1.5-1.2c0.2-0.3,0.3-0.6,0.4-1s0.1-0.8,0.1-1.1c0,0.2-0.1,0.4-0.1,0.7c0.1-0.4,0.1-0.8,0.1-1.2
					c0,0.2-0.1,0.4-0.1,0.7c0-0.2,0.1-0.4,0.1-0.6c0.1-0.4,0.1-0.8,0.2-1.1c0,0.2-0.1,0.4-0.1,0.7c0.2-0.7,0.1-1.5,0.1-2.2
					c0-0.6-0.3-1.3-0.7-1.8c-0.4-0.4-1.2-0.8-1.8-0.7c-0.7,0-1.3,0.2-1.8,0.7C63.3,115.7,63,116.3,63,117L63,117z"/>
			</g>
		</g>
		<g class="st0">
			<g class="st3">
				<path class="st5" d="M62.9,117.3c0.3-0.9-0.4,0.9,0,0.2c-0.2,0.4-0.3,0.6-0.3,1c-0.1,0.3-0.2,0.7-0.2,1.1s0.1-0.2,0,0
					s-0.1,0.4-0.2,0.6c-0.1,0.2-0.2,0.7,0,0.2c-0.1,0.3-0.3,0.6-0.4,0.9c0.1-0.4,0.1-0.4,0,0c-0.2,0.4-0.2,0.4,0-0.1
					c0,0.2-0.5,1-0.6,1.2c-0.2,0.4-0.4,0.8-0.7,1.2c-0.4,0.6,0.2-0.2-0.2,0.2c-0.1,0.2-0.3,0.3-0.4,0.5c-0.2,0.3-0.2,0.2,0.1-0.1
					c-0.1,0.2-0.4,0.5-0.5,0.8c-0.1,0.1-0.1,0.1,0.1,0c-0.1,0.1-0.2,0.2-0.2,0.3c-0.1,0.1-0.2,0.2-0.4,0.4c0,0-0.5,0.4-0.1,0.1
					c-0.3,0.2-0.7,0.4-1,0.6c-0.5,0.3-1,0.6-1.4,1c-0.5,0.4,0.2-0.1-0.2,0.2c-0.1,0.1-1,0.7-0.5,0.4c-0.5,0.3-0.9,0.7-1.3,1.1
					c-0.2,0.1-0.1,0.1,0.1-0.1c-0.1,0.1-0.2,0.1-0.3,0.2c-0.1,0.1-0.3,0.1-0.4,0.2c-0.4,0.2-0.8,0.4-1.1,0.7c-0.4,0.3-0.7,0.7-1,1.1
					c0.3-0.5-0.2,0.2-0.3,0.4c0.3-0.3,0.6-0.6,0.9-0.9c-0.3,0.2-0.6,0.4-0.8,0.7c-0.2,0.2-1,1.3-0.3,0.4c-0.8,1-1.1,2.6,0,3.5
					c0.9,0.8,2.7,1.1,3.5,0c0.1-0.1,0.8-0.9,0.3-0.3c0.5-0.5-0.6,0.4,0.1-0.2c0.2-0.1,0.3-0.3,0.5-0.4c0.3-0.3,0.3-0.3,0,0
					c0,0,0.6-0.8,0.7-0.9c-0.3,0.3-0.6,0.6-0.9,0.9c0.7-0.5,1.6-0.9,2.3-1.4c0.2-0.1,0.4-0.3,0.6-0.5c0.4-0.4-0.2,0.1,0.2-0.2
					c0.1-0.1,1-0.7,0.5-0.4c0.3-0.2,0.6-0.4,0.9-0.6c0,0,0.5-0.4,0.3-0.2c-0.2,0.1,0.4-0.2,0.5-0.2c0.3-0.2,0.7-0.4,1-0.6
					c0.9-0.7,1.8-1.4,2.4-2.3c0.2-0.3,0.1-0.3,0,0c-0.3,0.5,0.8-1.2,0.3-0.4c0.3-0.5,0.7-0.9,1-1.4c0.5-0.8,1.1-1.8,1.4-2.8
					c-0.2,0.7,0.1-0.1,0.2-0.4c-0.1,0.5-0.1,0.2,0.1-0.1c0.2-0.5,0.4-0.9,0.5-1.4c0.1-0.3,0.1-0.7,0.2-1c0-0.1,0-0.2,0-0.3
					c0-0.2,0-0.1,0,0.2c0-0.1,0-0.1,0-0.2c-0.2,0.4-0.2,0.3,0.1-0.4c-0.2,0.6,0.1-0.3,0.2-0.6c0.4-1.2-0.5-2.8-1.8-3.1
					C64.6,115.2,63.4,116,62.9,117.3L62.9,117.3z"/>
			</g>
		</g>
		<g class="st0">
			<g class="st3">
				<path class="st5" d="M64.9,127.3L64.9,127.3c0,0.1-0.1,0.4-0.1,0.6v-0.1c-0.1,0.2-0.2,0.4-0.2,0.6c0-0.1,0.1-0.1,0.1-0.2
					c-0.1,0.2-0.3,0.3-0.4,0.5c0.2-0.2,0.3-0.4,0.5-0.7c0.1-0.1,0.1-0.2,0.1-0.3c0.1-0.1,0.1-0.2,0.1-0.3L64.9,127.3
					c0,0.2-0.1,0.4-0.1,0.6c0.1-0.2,0.2-0.3,0.3-0.5c0.2-0.3,0.3-0.7,0.5-1.1c-0.1,0.2-0.2,0.4-0.2,0.6c0.1-0.2,0.2-0.3,0.2-0.5
					c0.2-0.3,0.3-0.7,0.5-1c-0.1,0.2-0.2,0.4-0.2,0.6c0,0,0-0.1,0.1-0.1c-0.1,0.2-0.3,0.3-0.4,0.5c0,0,0,0,0-0.1
					c0.2-0.2,0.4-0.5,0.5-0.8c0.2-0.3,0.2-0.6,0.2-1c0-0.3-0.1-0.7-0.2-1s-0.3-0.6-0.5-0.8c-0.5-0.4-1.1-0.8-1.8-0.7
					c-0.2,0-0.4,0.1-0.7,0.1c-0.4,0.1-0.8,0.3-1.1,0.6c-0.1,0.1-0.2,0.2-0.2,0.3c-0.1,0.1-0.2,0.2-0.2,0.3c-0.1,0.2-0.2,0.5-0.3,0.7
					c0.1-0.2,0.2-0.4,0.2-0.6c-0.1,0.2-0.2,0.3-0.2,0.4c-0.2,0.3-0.3,0.7-0.4,1c0.1-0.2,0.2-0.4,0.2-0.6c-0.1,0.2-0.2,0.4-0.3,0.6
					c0,0.1-0.1,0.2-0.1,0.2c-0.2,0.2-0.2,0.5-0.3,0.8c0.1-0.2,0.2-0.4,0.2-0.6c0,0,0,0,0,0.1c0.1-0.2,0.3-0.3,0.4-0.5
					c-0.2,0.2-0.4,0.5-0.6,0.7c-0.3,0.5-0.4,0.9-0.4,1.5c0,0.3,0.1,0.7,0.2,1c0.1,0.3,0.3,0.6,0.5,0.8s0.5,0.4,0.8,0.5
					c0.3,0.2,0.6,0.2,1,0.2c0.2,0,0.4-0.1,0.7-0.1c0.4-0.1,0.8-0.3,1.1-0.6C64.6,128.6,64.9,128,64.9,127.3L64.9,127.3z"/>
			</g>
		</g>
	</g>
	<g id="Capa_1_1_">
		<rect x="-9.4" y="-2.9" class="st6" width="162" height="141"/>
		<text transform="matrix(1 0 0 1 -9.2992 136.5238)" class="st7 st8 st9">S</text>
		<text transform="matrix(1 0 0 1 -9.2992 136.5238)" class="st10 st8 st11">S</text>
		<rect x="41.6" y="-2.9" class="st6" width="126" height="141"/>
		<text transform="matrix(1 0 0 1 41.3812 136.5233)" class="st12 st8 st11">B</text>
		<text transform="matrix(1.0587 0 0 1 151.333 59.2623)" class="st13 st14 st15 st16">Sergio</text>
		<text transform="matrix(1.0587 0 0 1 151.333 59.2623)" class="st17 st18 st19">Sergio</text>
		<text transform="matrix(1.0587 0 0 1 151.3345 123.421)" class="st13 st14 st15 st16">Blanco</text>
		<text transform="matrix(1.0587 0 0 1 148.9448 123.421)" class="st17 st18 st19">Blanco</text>
		<path class="st20" d="M51.9,2.6C61.3,2.8,66,3.5,66.2,4.9c0.1,0.8-1.7,1.9-5.3,3.2"/>
		<path class="st20" d="M52.7,3.2c2.9,2.9,5.8,5.8,8.7,8.7"/>
		<g class="st0">
			<g class="st3">
				<path class="st5" d="M52.7,8.1h0.5c0.5,0,0.3,0.1-0.7-0.3c-0.3-0.3-0.6-0.6-0.9-0.9c0,0,0,0,0,0.1c0.5-1.2,1-2.5,1.5-3.7
					c0.8-0.2,0.5-0.1,0.2-0.1s-0.7,0-1,0.1c-0.9,0.2-1.7,0.9-2,1.8C49.8,6.8,51,8,52.5,8.6c0.3,0.1,0.6,0.2,0.8,0.3
					c0.1,0,0.2,0.1,0.4,0.1c-0.6-0.2-0.5-0.2,0.2,0.1c-0.4-0.2-0.5-0.2-0.3-0.1c0.5,0.3,1,0.6,1.5,0.8c-0.1,0,1.3,0.5,0.3,0.1
					c1.9,0.7-1-0.4,0.9,0.4c-0.7-0.3-0.2-0.1,0,0c0.1,0.1,0.3,0.1,0.4,0.2c0.6,0.3,1.2,0.6,1.9,0.9c0.1,0,0.3,0.2,0.3,0.2
					c-0.1-0.1-0.2-0.1-0.3-0.2c0.2,0.2,0.4,0.3,0.6,0.5c0.1,0.1,0.5,0.4,0,0c0.1,0.1,1,0.8,0.4,0.3c0.8,0.6,1.5,1.1,2.5,1.3
					c1.3,0.3,2.8-0.4,3.1-1.8c0.3-1.3-0.4-2.8-1.8-3.1c-0.1,0-0.2-0.1-0.3-0.1c-0.3-0.1,0.5,0.2,0.2,0.1c-0.1-0.1-0.2-0.1-0.2-0.1
					c-0.1,0-0.3-0.2-0.1,0c0.5,0.2-0.8-0.6-0.1-0.1c-0.2-0.2-0.5-0.4-0.7-0.5c-0.1-0.1-0.2-0.2-0.3-0.2c0.1,0.1,0.2,0.1,0.3,0.2
					c-0.2-0.1-0.3-0.3-0.5-0.4c-0.4-0.3-0.9-0.5-1.3-0.7c-0.5-0.2-0.9-0.5-1.4-0.7c-0.3-0.2-0.7-0.4-1.1-0.5c0.1,0,0.2,0.1,0.3,0.1
					c-0.7-0.3-0.8-0.3-0.5-0.2c0.2,0.1,0.2,0.1-0.2-0.1c-0.1-0.1-0.3-0.1-0.4-0.2c0.2,0,0.5,0.2,0.2,0c-0.1-0.1-0.2-0.1-0.4-0.2
					s-0.3-0.2-0.5-0.3c-0.1-0.1-0.3-0.2-0.4-0.2c-0.7-0.3-0.8-0.3-0.4-0.2c0.3,0.1,0.2,0.1-0.1-0.1C55.3,4.1,55.2,4.1,55,4
					s-0.5-0.2-0.7-0.2c-0.1,0-0.2-0.1-0.3-0.1C54.3,4,54.4,4,54.2,3.9c-0.3-0.2-0.1,0,0.6,0.7C54.9,5.2,55,5.9,55,6.5V6.4
					c-0.4,0.5-0.8,1-1.2,1.5c-0.3,0.1-0.5,0.2-0.9,1.2h0.3c0.3-0.9,0.7-0.9,1-1c1.4-0.4,2.5-2.3,1.5-3.7c-0.5-0.6-1-1.1-1.7-1.3
					C53.7,3,53.2,3,52.7,3c-1.3,0-2.6,1.2-2.5,2.5C50.2,6.9,51.3,8,52.7,8.1L52.7,8.1z"/>
			</g>
		</g>
		<g class="st0">
			<g class="st3">
				<path class="st5" d="M62.7,15.4L62.7,15.4c-0.1-0.1-0.3-0.2-0.5-0.4c0.2,0.2,0.5,0.5,0.7,0.7c-0.1-0.2-0.3-0.3-0.4-0.5
					c0.4,0.5,0.7,1,1,1.4c-0.1-0.2-0.3-0.3-0.4-0.5c0.1,0.1,0.1,0.2,0.2,0.3c-0.1-0.2-0.2-0.4-0.2-0.6c0,0.2,0.1,0.3,0.1,0.5
					c0-0.2-0.1-0.4-0.1-0.7c0,0.1,0,0.2,0,0.3c0-0.2,0.1-0.4,0.1-0.7c-0.1,0.4-0.2,0.9-0.2,1.3c0,0.2,0,0.5,0.1,0.7s0.2,0.5,0.3,0.7
					c0.1,0.1,0.1,0.2,0.2,0.3c-0.1-0.2-0.2-0.4-0.2-0.6v0.1c0-0.2-0.1-0.4-0.1-0.7c0,0.1,0,0.2,0,0.3c0,0.6,0.3,1.3,0.7,1.8
					c0.4,0.4,1.2,0.8,1.8,0.7c0.7,0,1.3-0.2,1.8-0.7s0.7-1.1,0.7-1.8c0-0.4,0-0.7-0.1-1.1c-0.1-0.4-0.3-0.6-0.4-0.9
					c0.1,0.2,0.2,0.4,0.2,0.6c0,0,0,0,0-0.1c0,0.2,0.1,0.4,0.1,0.7c0-0.1,0-0.2,0-0.2c0,0.2-0.1,0.4-0.1,0.7
					c0.1-0.4,0.2-0.7,0.2-1.1c0-0.4-0.1-0.7-0.1-1.1c-0.1-0.7-0.5-1.3-0.9-1.8c0.1,0.2,0.3,0.3,0.4,0.5c-0.3-0.5-0.7-0.9-1-1.4
					c-0.3-0.4-0.7-0.8-1.2-1.1c-0.3-0.2-0.6-0.3-0.9-0.3c-0.3-0.1-0.7-0.1-1,0C62.7,11,62,11.4,61.8,12c-0.3,0.6-0.5,1.3-0.2,1.9
					c0.1,0.2,0.2,0.4,0.2,0.6C62,14.9,62.3,15.2,62.7,15.4L62.7,15.4z"/>
			</g>
		</g>
		<path class="st21" d="M63.7,15c-0.3,4.1,2.1,7.5,5,8c2.4,0.4,4.4-1.2,4.8-1.5"/>
		<path class="st21" d="M67.4,17.6"/>
		<path class="st21" d="M61.3,15.8c1.9,2.5,3.7,5,5.6,7.5"/>
		<path class="st22" d="M64.5,21.6"/>
		<line class="st23" x1="64.6" y1="22.1" x2="64.6" y2="129.1"/>
		<path class="st21" d="M63.9,19"/>
		<path class="st21" d="M64.6,23.6c0-1.1-0.1-2.7-1-4.5c-0.3-0.6-0.7-1.2-1-1.6"/>
		<g class="st0">
			<g class="st3">
				<path class="st12" d="M60.6,121.8L60.6,121.8L60.6,121.8c0.8,0.3,0.8,0.5,0.9,0.8l0,0v0.1c0-0.2-0.1-0.4-0.1-0.7
					c0,0.1,0.2,0.2,0.2,0.2s0,0.1,0,0.2c0,0.3,0.1,0.7,0.2,1c0.1,0.3,0.3,0.6,0.5,0.8c0.2,0.2,0.5,0.4,0.8,0.5
					c0.3,0.2,0.6,0.2,1,0.2c0.2,0,0.4-0.1,0.7-0.1c0.4-0.1,0.8-0.3,1.1-0.6c0.1-0.2,0.3-0.3,0.4-0.5c0.2-0.4,0.3-0.8,0.3-1.3
					c0-0.1,0-0.3,0-0.3V122c-0.2-0.3-0.3-0.5-0.3-0.8c0,0.2,0.1,0.4,0.1,0.7c0-0.1,0-0.1,0-0.1c0-0.3-0.1-0.7-0.2-1
					s-0.3-0.6-0.5-0.8c-0.2-0.2-0.5-0.4-0.8-0.5c-0.3-0.2-0.6-0.2-1-0.2c-0.2,0-0.4,0.1-0.7,0.1c-0.4,0.1-0.8,0.3-1.1,0.6
					c-0.1,0.2-0.3,0.3-0.4,0.5c-0.2,0.4-0.3,0.8-0.3,1.3L60.6,121.8L60.6,121.8z"/>
			</g>
		</g>
		<g class="st0">
			<g class="st3">
				<path class="st5" d="M62.2,116.7c-0.2,0.6-0.2,1.2-0.2,1.7c0,0.3,0,0.3,0,0c0.1-0.4,0-0.2-0.1,0.5c0.1-0.7,0,0.6-0.1,0.8
					c0,0.2,0,0.1,0-0.1c-0.1,0.3-0.1,0.3,0.1-0.1c0,0.1-0.2,0.4-0.2,0.4c0.6-0.5,0.8-0.7,0.4-0.4l-0.1,0.1c-0.5,0.3-0.8,0.7-1.1,1.1
					c1.3,0.6,2.7,1.1,4,1.7c0,0.6,0,0.6-0.1,1.2c-0.4,0.1-0.9,0.2-1.3,0.4c0.2,0,0.4,0,0.5,0c-1.2,0.3,0.3-3.5-0.8-3
					c-0.1,0.1-0.2,0.1-0.3,0.2s-0.1,0.1,0,0c0.2-0.1,0.5-0.1,0.8,0c0.6,0.6,1.2,1.2,1.8,1.8c-0.4,0.7-0.8,1.5-1.2,2.2
					c-0.4,0-0.9,0-1.3,0c0.1,0,0.1,0,0.2,0c-0.4-0.2-0.7-0.4-1.1-0.6c-0.1-0.2-0.1-0.2,0,0c-0.1-0.4-0.2-0.8-0.3-1.3
					c0,0.2,0,0.4,0.1,0.6c0-0.1,0-0.2,0-0.3c-0.1,0.2-0.1,0.3,0,0.1c0-0.2,0.4-0.3,0-0.1c0.3-0.2-0.4,0.1,0-0.1
					c-1.2,0.4-2.3,1.8-1.8,3.1c0.1,0.2,0,0.5,0.1,0.1c0-0.1,0.1-0.5,0-0.2c0.1-0.2,0.5-0.6,0.1-0.3c0,0.1-0.5,0.4-0.2,0.2
					c0.2-0.2-0.4,0.2-0.4,0.2c-0.2,0.1-0.4,0.2-0.6,0.3c-0.1,0.1-0.5,0.2-0.2,0.1c-0.2,0.1-0.4,0.2-0.6,0.2
					c-0.4,0.2-0.1,0.1,0.7-0.2c0.7,1.2,1.4,2.5,2.2,3.8v-0.1c-0.3,0.3-0.6,0.6-0.9,0.9c0,0,0.1,0,0.1-0.1c-1.2-0.9-2.5-1.9-3.7-2.8
					v0.1c0.2-0.4,0.4-0.7,0.6-1.1c-0.1,0.1-0.5,0.4,0,0.1c-0.1,0.1-0.2,0.1-0.3,0.2c-0.2,0.1-0.4,0.2-0.6,0.3c0.3-0.1-0.1,0-0.2,0.1
					c-0.4,0.1-0.8,0.2-1.3,0.3c-0.2,0.1-0.4,0.1-0.6,0.2c-0.6,0.2,0.2,0.1-0.3,0s-1,0-1.4,0.2c-0.2,0.1-0.4,0.2-0.6,0.2
					c-0.5,0.4-0.7,0.5-0.4,0.3c0.2-0.2,0.2-0.2,0,0c-0.2,0.1-0.3,0.3-0.5,0.4c-0.2,0.2-0.4,0.6-0.7,0.8c0.5-0.4,0.1-0.2-0.2,0.3
					c-0.3,0.6-0.5,1.2-0.5,1.8c0,1.3,1.1,2.6,2.5,2.5c1.3-0.1,2.5-1.1,2.5-2.5c0,0.4-0.2,0.7-0.5,1c0.5-0.6,0.5-0.7,0.2-0.3
					c-0.6,0.5,0.3-0.2,0.5-0.4c-0.4,0.2-0.7,0.4-1.1,0.6c0.3-0.1,0.1,0-0.1,0c0.1,0,0.2,0,0.4,0c0.5,0,1-0.1,1.4-0.2
					c0.7-0.2,1.5-0.3,2.1-0.6c1.4-0.6,3.4-1.4,3.8-3.1c0.5-2.2-1.7-3.8-3.7-2.8c-0.4,0.2-0.8,0.6-1,1.1c-0.8,1.9,0.2,3.5,2.2,3.8
					c0.6,0.1,1.1-0.2,1.6-0.4c0.3-0.1-0.8,0.3,0.1,0c0.2-0.1,0.4-0.2,0.6-0.3c0.8-0.4,1.6-0.8,2.2-1.4c1.3-1.2,2-3,1.3-4.7
					c-0.6,1-1.2,2.1-1.7,3.1c2.5-0.8,4.4-3.5,3.3-6.1c-0.7-1.6-2.3-2.5-4-1.8c-1.6,0.7-2.2,2.2-1.9,3.8c0.2,0.9,1,1.5,1.8,1.8
					c1.2,0.4,2.5-0.1,3.5-0.8c1.3-0.8,2.1-2.3,1.6-3.8s-1.8-2.4-3.4-2.4s-3,0.8-3.4,2.4c-0.3,1.2,0.3,2.4,1.5,2.9
					c1.1,0.5,2.5,0.1,3.1-1c-0.7,0.6-0.8,0.7-0.4,0.5c0.2-0.2,0.4-0.3,0.7-0.5c0.2-0.2,0.4-0.5,0.6-0.8c0.3-0.5,0.6-1.1,0.7-1.7
					c0.1-0.4,0.1-0.8,0.1-1.2c-0.1,0.5-0.1,0.4,0.1-0.4c-0.1,0.4-0.1,0.3,0-0.1c0-0.3,0.1-0.6,0.1-0.9c0-0.1,0-0.3,0-0.4
					c-0.1,0.4-0.1,0.5,0,0.2c0.4-1.2-0.4-2.8-1.8-3.1C64,114.7,62.6,115.4,62.2,116.7L62.2,116.7z"/>
			</g>
		</g>
		<path class="st21" d="M57.1,135.5c-1,0-2.1,0-3.3,0c-1.7,0.1-3.2,0.3-4.6,0.5"/>
	</g>
</g>
</svg>
